<svg xmlns="http://www.w3.org/2000/svg" viewBox="0 0 800 800" role="img" aria-label="Geometric planter (sample image)">
<defs>
<linearGradient id="bg" x1="0" y1="0" x2="1" y2="1"><stop offset="0" stop-color="#f07a1a"/><stop offset="1" stop-color="#b84a05"/></linearGradient>
<pattern id="layers" width="8" height="8" patternUnits="userSpaceOnUse"><rect width="8" height="4" fill="#fff" fill-opacity=".16"/></pattern>
<filter id="sh" x="-20%" y="-20%" width="140%" height="150%"><feDropShadow dx="0" dy="18" stdDeviation="16" flood-color="#000" flood-opacity=".28"/></filter>
</defs>
<rect width="800" height="800" fill="url(#bg)"/>
<g filter="url(#sh)"><path d="M250 330 L550 330 L500 640 L300 640 Z" fill="#f4f4f2"/><path d="M250 330 L550 330 L500 640 L300 640 Z" fill="url(#layers)"/><path d="M250 330 L400 330 L350 640 L300 640 Z" fill="#d9dad6"/><path d="M250 330 L400 330 L350 640 L300 640 Z" fill="url(#layers)"/><path d="M330 330 Q340 200 400 180 Q460 200 470 330 Z" fill="#2f9e5a"/><path d="M400 330 Q350 250 300 260 Q330 320 400 330 Z" fill="#3fbf72"/></g>
<text x="400" y="752" text-anchor="middle" font-family="sans-serif" font-size="22" fill="#fff" fill-opacity=".75">Sample image — replace with your photo</text>
</svg>